<?xml version="1.0" encoding="UTF-8" standalone="no"?>
<svg
   version="1.1"
   id="Layer_1"
   x="0px"
   y="0px"
   width="122.879px"
   height="88.855px"
   viewBox="0 0 122.879 88.855"
   enable-background="new 0 0 122.879 88.855"
   xml:space="preserve"
   sodipodi:docname="mail-icon.svg"
   inkscape:version="1.4 (e7c3feb100, 2024-10-09)"
   xmlns:inkscape="http://www.inkscape.org/namespaces/inkscape"
   xmlns:sodipodi="http://sodipodi.sourceforge.net/DTD/sodipodi-0.dtd"
   xmlns="http://www.w3.org/2000/svg"
   xmlns:svg="http://www.w3.org/2000/svg"><defs
     id="defs1" /><sodipodi:namedview
     id="namedview1"
     pagecolor="#ffffff"
     bordercolor="#999999"
     borderopacity="1"
     inkscape:showpageshadow="2"
     inkscape:pageopacity="0"
     inkscape:pagecheckerboard="0"
     inkscape:deskcolor="#d1d1d1"
     inkscape:zoom="8.9921779"
     inkscape:cx="61.386686"
     inkscape:cy="44.427502"
     inkscape:window-width="1920"
     inkscape:window-height="1008"
     inkscape:window-x="0"
     inkscape:window-y="0"
     inkscape:window-maximized="1"
     inkscape:current-layer="Layer_1" /><g
     id="g1"><path
       d="M7.048,0h108.784c1.939,0,3.701,0.794,4.977,2.069c1.277,1.277,2.07,3.042,2.07,4.979v74.759 c0,1.461-0.451,2.822-1.221,3.951c-0.141,0.365-0.361,0.705-0.662,0.994c-0.201,0.189-0.422,0.344-0.656,0.461 c-1.225,1.021-2.799,1.643-4.508,1.643H7.048c-1.937,0-3.701-0.793-4.979-2.07C0.794,85.51,0,83.748,0,81.807V7.048 c0-1.941,0.792-3.704,2.068-4.979C3.344,0.792,5.107,0,7.048,0L7.048,0z M5.406,78.842l38.124-38.22L5.406,9.538V78.842 L5.406,78.842z M47.729,44.045L8.424,83.449h105.701L76.563,44.051L64.18,54.602l0,0c-0.971,0.83-2.425,0.877-3.453,0.043 L47.729,44.045L47.729,44.045z M80.674,40.549l36.799,38.598V9.198L80.674,40.549L80.674,40.549z M8.867,5.406l53.521,43.639 l51.223-43.639H8.867L8.867,5.406z"
       id="path1"
       style="fill:#000000" /></g><path
     style="fill:#ffffff;stroke-width:0.111208"
     d="m 9.240396,82.758804 c 0.3308201,-0.355862 9.133907,-9.187227 19.562415,-19.625258 l 18.960924,-18.978238 6.600434,5.38314 c 3.642625,2.970828 6.795684,5.461263 7.036141,5.557475 0.589132,0.235723 1.601772,0.219251 2.154927,-0.03505 0.244657,-0.112477 3.270934,-2.614249 6.725061,-5.559492 l 6.280229,-5.354987 0.461435,0.474179 c 0.253791,0.260799 7.158899,7.50529 15.344686,16.09887 8.185792,8.59358 16.403552,17.213572 18.261692,19.155537 l 3.37845,3.530847 H 61.322846 8.6389048 Z"
     id="path2" /><path
     style="fill:#ffffff;stroke-width:0.111208"
     d="M 9.3229708,82.655171 C 9.6923897,82.242312 18.492687,73.410676 28.879188,63.029314 l 18.884547,-18.875204 4.781933,3.901697 c 7.541626,6.153397 8.557101,6.95449 9.001506,7.101157 0.232155,0.07662 0.730743,0.117862 1.122927,0.09289 0.594217,-0.03784 0.798403,-0.110005 1.295691,-0.457953 0.324673,-0.22717 3.291168,-2.7156 6.592211,-5.529842 l 6.001896,-5.116805 0.572642,0.585955 c 0.314952,0.322276 8.267705,8.66798 17.672784,18.54601 9.405075,9.878029 17.580275,18.447978 18.167105,19.044329 l 1.06696,1.084276 H 61.345344 8.6513002 Z"
     id="path3" /><path
     style="fill:#ffffff;stroke-width:0.111208"
     d="M 5.4540515,44.166929 5.4491804,9.6543645 5.9774173,10.091698 c 0.2905303,0.240533 8.6853267,7.082262 18.6551027,15.203844 9.969776,8.12158 18.268667,14.903142 18.441981,15.070136 L 43.389617,40.669304 24.42427,59.674399 5.4589226,78.679493 Z"
     id="path4" /><path
     style="fill:#ffffff;stroke-width:0.111208"
     d="M 35.716949,27.213196 9.1019462,5.5047843 35.188712,5.4767492 c 14.347721,-0.015419 37.81295,-0.015419 52.144952,0 L 113.39185,5.5047843 87.938693,27.190298 C 73.939457,39.117331 62.45098,48.886117 62.408744,48.89871 62.366508,48.911304 50.3552,39.152823 35.716949,27.213196 Z"
     id="path5" /><path
     style="fill:#ffffff;stroke-width:0.111208"
     d="M 99.141722,59.816217 C 89.110781,49.294096 80.903648,40.631574 80.903648,40.566168 c 0,-0.06541 8.207133,-7.110592 18.238074,-15.65597 l 18.238068,-15.5370518 0.0281,17.3881678 c 0.0155,9.563492 0.0155,25.217687 0,34.787101 l -0.0281,17.398933 z"
     id="path6" /></svg>
