<?xml version="1.0" encoding="UTF-8" standalone="no"?>
<svg
   version="1.1"
   id="Layer_1"
   x="0px"
   y="0px"
   viewBox="0 0 122.88 122.27"
   style="enable-background:new 0 0 122.88 122.27"
   xml:space="preserve"
   sodipodi:docname="phone-icon.svg"
   inkscape:version="1.4 (e7c3feb100, 2024-10-09)"
   xmlns:inkscape="http://www.inkscape.org/namespaces/inkscape"
   xmlns:sodipodi="http://sodipodi.sourceforge.net/DTD/sodipodi-0.dtd"
   xmlns="http://www.w3.org/2000/svg"
   xmlns:svg="http://www.w3.org/2000/svg"><defs
     id="defs1" /><sodipodi:namedview
     id="namedview1"
     pagecolor="#ffffff"
     bordercolor="#999999"
     borderopacity="1"
     inkscape:showpageshadow="2"
     inkscape:pageopacity="0"
     inkscape:pagecheckerboard="0"
     inkscape:deskcolor="#d1d1d1"
     inkscape:zoom="6.5347184"
     inkscape:cx="61.364541"
     inkscape:cy="61.134998"
     inkscape:window-width="1920"
     inkscape:window-height="1008"
     inkscape:window-x="0"
     inkscape:window-y="0"
     inkscape:window-maximized="1"
     inkscape:current-layer="Layer_1" /><g
     id="g1"
     style="fill:#000000"><path
       d="M33.84,50.25c4.13,7.45,8.89,14.6,15.07,21.12c6.2,6.56,13.91,12.53,23.89,17.63c0.74,0.36,1.44,0.36,2.07,0.11 c0.95-0.36,1.92-1.15,2.87-2.1c0.74-0.74,1.66-1.92,2.62-3.21c3.84-5.05,8.59-11.32,15.3-8.18c0.15,0.07,0.26,0.15,0.41,0.21 l22.38,12.87c0.07,0.04,0.15,0.11,0.21,0.15c2.95,2.03,4.17,5.16,4.2,8.71c0,3.61-1.33,7.67-3.28,11.1 c-2.58,4.53-6.38,7.53-10.76,9.51c-4.17,1.92-8.81,2.95-13.27,3.61c-7,1.03-13.56,0.37-20.27-1.69 c-6.56-2.03-13.17-5.38-20.39-9.84l-0.53-0.34c-3.31-2.07-6.89-4.28-10.4-6.89C31.12,93.32,18.03,79.31,9.5,63.89 C2.35,50.95-1.55,36.98,0.58,23.67c1.18-7.3,4.31-13.94,9.77-18.32c4.76-3.84,11.17-5.94,19.47-5.2c0.95,0.07,1.8,0.62,2.25,1.44 l14.35,24.26c2.1,2.72,2.36,5.42,1.21,8.12c-0.95,2.21-2.87,4.25-5.49,6.15c-0.77,0.66-1.69,1.33-2.66,2.03 c-3.21,2.33-6.86,5.02-5.61,8.18L33.84,50.25L33.84,50.25L33.84,50.25z"
       id="path1"
       style="fill:#000000" /></g><path
     style="fill:#ffffff;stroke-width:0.153029"
     d="M 84.571225,121.94946 C 78.477467,121.30631 71.571275,119.11664 64.578146,115.61049 59.170852,112.89943 48.734485,106.46854 44.16657,103.03287 36.093131,96.960585 28.047634,89.204405 21.362114,81.048462 10.531862,67.836188 3.3802751,53.70303 1.0046027,40.817398 -0.13664278,34.627288 -0.1655464,27.684183 0.92746164,22.286905 3.4469187,9.8458198 11.197089,1.9543179 22.446803,0.37513906 24.3853,0.1030226 29.20922,0.0667018 30.202235,0.316746 c 0.37339,0.0940207 0.888395,0.35388346 1.144452,0.57747271 0.270101,0.23585179 3.543698,5.61052919 7.797327,12.80185729 4.032471,6.817432 7.585791,12.808509 7.896268,13.313504 1.967629,3.200378 1.398201,6.709802 -1.639103,10.101924 -1.010102,1.128101 -2.760445,2.574677 -6.302325,5.208578 -4.189004,3.11513 -5.514868,4.73604 -5.501416,6.725643 0.0072,1.060898 0.06157,1.17918 2.181583,4.743892 4.538906,7.631972 8.676201,13.109252 14.030657,18.5749 6.209715,6.338666 12.704737,11.187063 21.03056,15.698866 2.726135,1.477304 3.120049,1.55012 4.55751,0.84246 1.350736,-0.664965 2.870363,-2.190013 5.104374,-5.122585 3.77906,-4.960746 5.746855,-6.88536 8.300707,-8.118558 2.105498,-1.016696 4.418928,-1.044196 6.486651,-0.07711 0.52098,0.243667 6.02556,3.358044 12.23241,6.920839 10.13054,5.815038 11.38932,6.579578 12.30314,7.472495 1.92831,1.884217 2.74608,3.940341 2.86057,7.192352 0.0604,1.717015 0.017,2.337235 -0.25713,3.672694 -1.54155,7.50914 -5.97381,13.37795 -12.62386,16.71535 -4.22966,2.1227 -9.62009,3.59589 -15.844,4.3301 -2.062768,0.24334 -7.325454,0.27587 -9.389385,0.058 z"
     id="path2" /></svg>
